<svg width="267" height="267" viewBox="0 0 267 267" fill="none" xmlns="http://www.w3.org/2000/svg">
<path fill-rule="evenodd" clip-rule="evenodd" d="M133.333 266.667C206.971 266.667 266.667 206.971 266.667 133.333C266.667 59.6954 206.971 0 133.333 0C59.6954 0 0 59.6954 0 133.333C0 206.971 59.6954 266.667 133.333 266.667Z" fill="#2E7D32" fill-opacity="0.2"/>
<path fill-rule="evenodd" clip-rule="evenodd" d="M133.333 224.999C183.96 224.999 225 183.959 225 133.333C225 82.7066 183.96 41.666 133.333 41.666C82.7073 41.666 41.6667 82.7066 41.6667 133.333C41.6667 183.959 82.7073 224.999 133.333 224.999Z" fill="white"/>
<path fill-rule="evenodd" clip-rule="evenodd" d="M133.333 224.999C183.96 224.999 225 183.959 225 133.333C225 82.7066 183.96 41.666 133.333 41.666C82.7073 41.666 41.6667 82.7066 41.6667 133.333C41.6667 183.959 82.7073 224.999 133.333 224.999ZM92.0852 126.01C88.8309 129.265 88.8309 134.541 92.0852 137.795L115.655 161.366C118.91 164.62 124.186 164.62 127.441 161.366L174.581 114.225C177.835 110.971 177.835 105.694 174.581 102.44C171.327 99.1858 166.05 99.1858 162.796 102.44L121.548 143.688L103.87 126.01C100.616 122.756 95.3396 122.756 92.0852 126.01Z" fill="#2E7D32"/>
</svg>
