<svg width="32" height="32" viewBox="0 0 32 32" fill="none" xmlns="http://www.w3.org/2000/svg">
<path opacity="0.4" d="M13.4533 1.82996C13.7333 1.64329 14.0801 1.61663 14.3867 1.74996C16.5467 2.66996 17.8533 3.97664 18.6133 5.46997C19.3599 6.93664 19.5466 8.48329 19.6133 9.82996C19.6399 10.23 19.64 10.6433 19.6533 11.0299C19.6667 11.2833 19.6667 11.51 19.68 11.7233C19.6933 12.31 19.7333 12.7766 19.8267 13.1766C19.9067 13.5633 20.0133 13.8033 20.1466 13.95C20.2533 14.0833 20.4266 14.2033 20.7733 14.2833C21.1733 14.3633 21.3867 14.2833 21.52 14.1766C21.6934 14.0433 21.8667 13.8166 22.0133 13.4566C22.16 13.11 22.2933 12.27 22.3333 11.9633C22.3467 11.55 22.6267 11.1766 23.0133 11.0433C23.4133 10.91 23.8533 11.0433 24.12 11.3633C26.9866 14.9499 27 17.8833 27 19.3233C27 25.4033 22.08 30.3233 16 30.3233C9.92 30.3233 5 25.4033 5 19.3233C5 14.9233 7.22674 12.19 9.24007 9.8433C11.2134 7.54997 13 5.45662 13 2.65662C13 2.32328 13.1733 2.00328 13.4533 1.81661V1.82996Z" fill="#D32F2F"/>
<path d="M15.2001 13.8106C15.4667 13.984 15.64 14.264 15.6667 14.5706C15.76 15.7573 16.1601 17.0773 16.8934 17.8907C17.2401 18.2773 17.6667 18.544 18.1734 18.6506C18.6934 18.7573 19.3867 18.7307 20.32 18.384C20.6267 18.264 20.9734 18.3173 21.2401 18.504C21.5068 18.6906 21.6667 18.9973 21.6667 19.3306C21.6667 22.944 19.3467 26.3306 16 26.3306C14.44 26.3306 13 25.7173 11.96 24.584C10.92 23.4506 10.3334 21.864 10.3334 19.9973C10.3334 18.984 10.7601 17.664 11.4135 16.5306C12.0401 15.3973 13.0267 14.224 14.3067 13.7306C14.6 13.624 14.9334 13.6506 15.2001 13.8106Z" fill="#D32F2F"/>
</svg>
