<svg width="32" height="32" viewBox="0 0 32 32" fill="none" xmlns="http://www.w3.org/2000/svg">
<path d="M28.667 2.66699C29.4032 2.66717 30 3.26373 30 4C30 4.73627 29.4032 5.33283 28.667 5.33301L27 5.33301L27 21.3076C27 21.6407 26.8341 21.9519 26.5576 22.1377L16.6211 28.8076C16.2388 29.0642 15.7395 29.0636 15.3574 28.8066L5.44141 22.1377C5.16535 21.9519 5 21.6404 5 21.3076L5 5.33301L3.33301 5.33301C2.59678 5.33283 2 4.73627 2 4C2 3.26373 2.59678 2.66717 3.33301 2.66699L28.667 2.66699ZM16.0674 8.61426C15.7684 8.61437 15.4882 8.76204 15.3193 9.00879L13.7959 11.2354L11.7148 11.8564C11.4262 11.9426 11.1994 12.1667 11.1094 12.4541C11.0195 12.7415 11.0778 13.0547 11.2656 13.29L12.7344 15.1299L12.4385 17.6006C12.4007 17.917 12.5321 18.2298 12.7842 18.4248C13.0363 18.6199 13.3721 18.6679 13.6689 18.5518L16.0674 17.6133L18.4668 18.5518C18.7636 18.6678 19.0995 18.6198 19.3516 18.4248C19.6035 18.2298 19.7341 17.9169 19.6963 17.6006L19.4004 15.1299L20.8691 13.29C21.0571 13.0547 21.1163 12.7416 21.0264 12.4541C20.9363 12.1665 20.7087 11.9425 20.4199 11.8564L18.3398 11.2354L16.8154 9.00879C16.6464 8.76211 16.3664 8.61426 16.0674 8.61426Z" fill="#2E7D32"/>
</svg>
