<svg width="24" height="24" viewBox="0 0 24 24" fill="none" xmlns="http://www.w3.org/2000/svg">
<path d="M9.10659 1.33129C9.61416 1.11385 10.2015 1.34915 10.4191 1.85669L13.2023 8.35083C13.616 8.41988 14.0176 8.52441 14.4044 8.6604L17.5939 1.82739C17.8274 1.32709 18.4226 1.11071 18.923 1.34399C19.4234 1.57751 19.6398 2.17266 19.4064 2.67309L16.1828 9.58032C18.0379 10.8934 19.2501 13.0546 19.2501 15.5002C19.2501 19.5043 16.0042 22.7502 12.0001 22.7502C7.99608 22.7502 4.75014 19.5043 4.75014 15.5002C4.75021 13.0548 5.9618 10.8934 7.81655 9.58032L4.59389 2.67309C4.36062 2.17271 4.57697 1.5775 5.07729 1.34399C5.57768 1.11048 6.17275 1.3271 6.40639 1.82739L9.59487 8.6604C10.0486 8.50083 10.5228 8.38533 11.0128 8.3186L8.5812 2.64477C8.36364 2.13714 8.59896 1.54885 9.10659 1.33129ZM13.8136 13.1389C13.0124 12.0585 11.4439 11.9442 10.4972 12.9016L9.95034 13.4905C9.66876 13.7941 9.68689 14.2683 9.99038 14.55C10.2939 14.8316 10.7682 14.8144 11.0499 14.511L11.5705 13.9495C11.8693 13.6553 12.3553 13.691 12.6085 14.0325C12.806 14.2989 12.7954 14.6684 12.5871 14.9221L9.9767 17.4631C9.75822 17.676 9.69102 17.9999 9.80581 18.2825C9.9207 18.5652 10.195 18.7502 10.5001 18.7502H13.4318C13.8459 18.7502 14.1818 18.4144 14.1818 18.0002C14.1817 17.5862 13.8459 17.2503 13.4318 17.2502H12.3458L13.6984 15.9309C14.3889 15.1452 14.4364 13.9789 13.8136 13.1389ZM14.0714 1.87915C14.2765 1.36636 14.8594 1.11739 15.3722 1.32251C15.8846 1.52781 16.1339 2.10971 15.9289 2.62231L14.9289 5.12231C14.7236 5.63484 14.1417 5.88399 13.629 5.67895C13.1163 5.47386 12.8665 4.89188 13.0714 4.37915L14.0714 1.87915Z" fill="#2E7D32"/>
</svg>
