<svg width="24" height="24" viewBox="0 0 24 24" fill="none" xmlns="http://www.w3.org/2000/svg">
<path d="M9.10659 1.33129C9.61416 1.11385 10.2015 1.34915 10.4191 1.85669L13.2023 8.35083C13.616 8.41988 14.0176 8.52441 14.4044 8.6604L17.5939 1.82739C17.8274 1.32709 18.4226 1.11071 18.923 1.34399C19.4234 1.57751 19.6398 2.17266 19.4064 2.67309L16.1828 9.58032C18.0379 10.8934 19.2501 13.0546 19.2501 15.5002C19.2501 19.5043 16.0042 22.7502 12.0001 22.7502C7.99608 22.7502 4.75014 19.5043 4.75014 15.5002C4.75021 13.0548 5.9618 10.8934 7.81655 9.58032L4.59389 2.67309C4.36062 2.17271 4.57697 1.5775 5.07729 1.34399C5.57768 1.11048 6.17275 1.3271 6.40639 1.82739L9.59487 8.6604C10.0486 8.50083 10.5228 8.38533 11.0128 8.3186L8.5812 2.64477C8.36364 2.13714 8.59896 1.54885 9.10659 1.33129ZM12.0001 12.2502C11.5119 12.2503 11.0639 12.3703 10.6759 12.6379C10.2966 12.8998 10.0291 13.2657 9.82924 13.6653C9.64437 14.0357 9.79491 14.4859 10.1652 14.6711C10.5356 14.8562 10.9858 14.7056 11.171 14.3352C11.2976 14.0822 11.42 13.9472 11.5285 13.8723C11.6284 13.8035 11.7675 13.7503 12.0001 13.7502C12.2203 13.7502 12.4332 13.8217 12.5734 13.927C12.6991 14.0215 12.7501 14.1249 12.7501 14.2502C12.7501 14.5264 12.5263 14.7502 12.2501 14.7502C11.8361 14.7503 11.5002 15.0862 11.5001 15.5002C11.5001 15.9144 11.836 16.2502 12.2501 16.2502C12.5262 16.2502 12.75 16.4742 12.7501 16.7502C12.7501 16.8757 12.6991 16.979 12.5734 17.0735C12.4332 17.1788 12.2204 17.2502 12.0001 17.2502C11.7675 17.2502 11.6284 17.197 11.5285 17.1282C11.42 17.0533 11.2976 16.9183 11.171 16.6653C10.9858 16.295 10.5355 16.1444 10.1652 16.3293C9.7949 16.5145 9.64447 16.9648 9.82924 17.3352C10.0291 17.7348 10.2966 18.1007 10.6759 18.3625C11.0639 18.6303 11.5118 18.7502 12.0001 18.7502C12.5094 18.7502 13.0474 18.5938 13.4748 18.2727C13.9164 17.9408 14.2501 17.4188 14.2501 16.7502C14.2501 16.2773 14.0861 15.8426 13.8117 15.5002C14.0861 15.1579 14.2501 14.7232 14.2501 14.2502C14.2501 13.5817 13.9164 13.0597 13.4748 12.7278C13.0474 12.4067 12.5094 12.2502 12.0001 12.2502ZM14.0714 1.87915C14.2765 1.36636 14.8594 1.11739 15.3722 1.32251C15.8846 1.52781 16.1339 2.10971 15.9289 2.62231L14.9289 5.12231C14.7236 5.63484 14.1417 5.88399 13.629 5.67895C13.1163 5.47386 12.8665 4.89188 13.0714 4.37915L14.0714 1.87915Z" fill="#2E7D32"/>
</svg>
